<?xml version="1.0" standalone="no"?>
<!DOCTYPE svg PUBLIC "-//W3C//DTD SVG 20010904//EN"
 "http://www.w3.org/TR/2001/REC-SVG-20010904/DTD/svg10.dtd">
<svg version="1.0" xmlns="http://www.w3.org/2000/svg"
 width="512.000000pt" height="512.000000pt" viewBox="0 0 512.000000 512.000000"
 preserveAspectRatio="xMidYMid meet">
<metadata>
Created by potrace 1.16, written by Peter Selinger 2001-2019
</metadata>
<g transform="translate(0.000000,512.000000) scale(0.100000,-0.100000)"
fill="#000000" stroke="none">
<path d="M2330 5105 c-432 -76 -803 -355 -996 -750 -56 -116 -105 -272 -123
-392 -6 -39 -11 -134 -11 -210 0 -219 39 -390 135 -588 81 -169 207 -331 349
-450 l48 -41 -113 -43 c-228 -88 -493 -239 -684 -392 -443 -354 -772 -870
-905 -1419 -29 -122 -32 -146 -28 -245 4 -93 10 -122 36 -190 74 -187 224
-319 417 -370 49 -12 133 -15 487 -15 402 0 431 1 466 19 47 24 77 56 97 103
40 98 -1 210 -97 259 -35 18 -63 19 -406 19 -377 0 -458 6 -501 38 -92 68
-109 144 -67 307 157 619 596 1151 1180 1431 314 150 610 217 956 216 248 0
417 -27 679 -109 63 -19 136 -35 161 -35 177 0 264 214 140 343 -22 23 -58 45
-99 60 l-64 23 49 40 c142 120 264 277 348 449 96 198 136 370 136 590 0 162
-11 244 -51 387 -102 362 -368 677 -714 846 -116 56 -272 105 -392 123 -96 15
-340 12 -433 -4z m480 -424 c327 -95 576 -345 672 -677 20 -69 23 -100 22
-249 0 -156 -2 -177 -28 -260 -101 -330 -359 -576 -694 -661 -134 -34 -310
-34 -444 0 -335 85 -593 331 -694 661 -26 83 -28 104 -28 260 -1 149 2 180 22
249 102 354 374 611 728 690 102 23 344 16 444 -13z"/>
<path d="M3703 1975 c-175 -47 -314 -182 -373 -361 l-22 -64 -680 0 c-607 0
-684 -2 -714 -16 -44 -21 -422 -409 -440 -451 -19 -45 -17 -141 4 -179 29 -54
404 -432 445 -449 30 -13 97 -15 414 -15 363 0 378 1 421 21 26 13 54 38 70
62 23 35 27 51 27 117 0 66 -4 82 -27 117 -16 24 -44 49 -70 62 -42 20 -59 21
-349 21 l-304 0 -77 78 -77 77 70 78 71 77 714 0 c694 0 716 1 754 20 58 30
84 72 129 216 35 112 46 136 75 162 47 41 81 44 441 40 383 -4 364 4 431 -185
99 -274 99 -524 3 -807 -38 -112 -62 -151 -102 -174 -29 -15 -69 -17 -378 -17
l-345 0 -37 25 c-41 28 -61 69 -102 205 -15 50 -37 106 -50 126 -48 75 -172
102 -263 58 -95 -46 -123 -149 -83 -299 65 -240 163 -384 311 -460 116 -59
127 -60 571 -60 401 0 410 0 482 23 141 45 263 152 324 285 44 94 98 260 126
382 19 82 22 125 21 310 0 235 -9 297 -75 500 -54 167 -100 253 -176 329 -76
75 -135 112 -230 141 -61 19 -92 20 -472 19 -316 0 -418 -3 -458 -14z"/>
<path d="M4212 1179 c-62 -31 -95 -86 -100 -165 -8 -124 61 -204 184 -212 124
-8 204 61 212 184 5 81 -22 143 -81 182 -56 37 -154 42 -215 11z"/>
</g>
</svg>
