<?xml version="1.0" standalone="no"?>
<!DOCTYPE svg PUBLIC "-//W3C//DTD SVG 20010904//EN"
 "http://www.w3.org/TR/2001/REC-SVG-20010904/DTD/svg10.dtd">
<svg version="1.0" xmlns="http://www.w3.org/2000/svg"
 width="890.000000pt" height="890.000000pt" viewBox="0 0 890.000000 890.000000"
 preserveAspectRatio="xMidYMid meet">
<metadata>
Created by potrace 1.16, written by Peter Selinger 2001-2019
</metadata>
<g transform="translate(0.000000,890.000000) scale(0.100000,-0.100000)"
fill="#000000" stroke="none">
<path d="M2745 8894 c-291 -30 -428 -55 -640 -120 -789 -240 -1424 -773 -1789
-1503 -288 -574 -376 -1177 -271 -1846 26 -161 114 -451 195 -637 156 -362
352 -650 630 -928 429 -430 928 -692 1549 -815 275 -55 711 -59 1006 -9 413
69 832 233 1158 453 42 28 79 51 82 51 3 0 115 -104 250 -231 l244 -232 -100
-200 -101 -200 1339 -1339 1338 -1338 60 6 c324 32 616 150 799 323 210 200
357 511 396 837 l12 97 -1334 1334 c-733 733 -1338 1333 -1345 1333 -7 0 -87
-46 -178 -101 l-166 -101 -122 119 c-67 65 -164 159 -215 208 -52 50 -112 111
-134 138 l-40 47 35 58 c19 31 63 104 98 162 207 343 353 811 389 1250 46 552
-50 1050 -296 1548 -362 731 -1018 1287 -1789 1516 -288 85 -492 116 -805 121
-118 2 -233 1 -255 -1z m423 -684 c284 -30 543 -105 797 -231 448 -221 823
-598 1035 -1041 51 -106 133 -343 169 -484 60 -239 65 -699 11 -960 -25 -121
-102 -354 -157 -479 -224 -501 -638 -915 -1138 -1138 -109 -48 -304 -115 -430
-146 -237 -59 -691 -64 -956 -11 -133 27 -341 97 -487 163 -694 316 -1173 939
-1304 1697 -18 102 -18 627 0 730 84 489 330 950 688 1289 368 349 837 561
1354 614 80 8 327 6 418 -3z"/>
<path d="M2849 7786 c-2 -2 -38 -6 -79 -9 -237 -20 -583 -206 -770 -414 -153
-171 -291 -460 -319 -666 -16 -113 -13 -337 4 -447 19 -113 70 -270 120 -371
77 -152 193 -318 475 -679 362 -463 486 -675 635 -1090 24 -67 47 -115 54
-115 8 0 35 57 66 135 91 238 168 401 272 578 57 98 231 333 477 647 186 237
268 359 344 511 104 208 141 353 149 574 13 370 -120 702 -388 971 -164 164
-406 304 -597 344 -118 24 -426 47 -443 31z m311 -752 c72 -38 181 -146 213
-210 84 -167 46 -377 -95 -515 -110 -109 -240 -148 -392 -120 -155 29 -282
142 -337 299 -17 46 -20 76 -17 158 3 89 7 107 36 165 57 116 143 195 263 240
45 16 73 19 164 16 99 -3 115 -6 165 -33z"/>
</g>
</svg>
