<svg width="800" height="600" xmlns="http://www.w3.org/2000/svg">

 <g>
  <title>Layer 1</title>
  <ellipse ry="110" rx="119" id="svg_1" cy="286" cx="385" stroke="#000" fill="#fff"/>
  <ellipse ry="17.5" rx="19" id="svg_2" cy="240.5" cx="342" stroke="#000" fill="#fff"/>
  <ellipse ry="17.5" rx="19" id="svg_4" cy="240.5" cx="424" stroke="#000" fill="#fff"/>
  <ellipse stroke="#000" ry="92.5" rx="29.5" id="svg_5" cy="312.5" cx="288.5" fill="#fff"/>
  <ellipse stroke="#000" ry="92.5" rx="29.5" id="svg_6" cy="312.5" cx="477.5" fill="#fff"/>
  <ellipse ry="8.5" rx="11.5" id="svg_9" cy="299.5" cx="384.5" stroke="#000" fill="none"/>
  <path id="svg_11" d="m433.53652,414.01382c-4.427,2.66072 -9.12992,4.48666 -14.01343,5.5314c-20.41099,0.1345 -40.16844,0.1866 -60.6522,1.34125c-5.45772,-1.19631 -11.68709,0.08186 -16.36226,-4.11884c-3.4648,-3.27217 -10.76519,-1.1005 -9.57145,5.12265c2.35991,6.35022 -5.58586,9.78333 -2.90065,16.22688c2.33675,6.6169 9.3793,4.06898 13.60005,1.88092c7.75482,-2.16207 15.49653,-4.44152 23.27908,-6.48361c16.24932,-2.17358 31.54044,-0.82541 47.60369,0.46005c4.46534,1.14784 9.00103,1.81809 13.5472,2.42586c3.89106,0.07215 7.01107,3.36571 10.66771,3.9031c4.83479,-0.55231 6.27367,-8.65424 2.90283,-12.24861c-5.03931,-3.93234 2.5807,-10.88499 -3.11076,-14.14841c-1.62493,-1.04161 -3.3367,-0.34146 -4.98982,0.10735l0,0.00001z" stroke="#000" fill="none"/>
  <path id="svg_12" d="m349,357" opacity="NaN" stroke="#000" fill="none"/>
  <line stroke="#000" id="svg_21" y2="345" x2="349" y1="307" x1="384" fill="none"/>
  <line stroke="#000" id="svg_22" y2="341" x2="418" y1="309" x1="385" fill="none"/>
 </g>
</svg>